<?xml version="1.0" encoding="UTF-8"?>
<!DOCTYPE svg PUBLIC "-//W3C//DTD SVG 1.1//EN" "http://www.w3.org/Graphics/SVG/1.1/DTD/svg11.dtd">
<svg xmlns="http://www.w3.org/2000/svg" version="1.1" width="460px" height="460px" style="shape-rendering:geometricPrecision; text-rendering:geometricPrecision; image-rendering:optimizeQuality; fill-rule:evenodd; clip-rule:evenodd" xmlns:xlink="http://www.w3.org/1999/xlink">
<g><path style="opacity:1" fill="#2f405f" d="M -0.5,-0.5 C 152.833,-0.5 306.167,-0.5 459.5,-0.5C 459.5,152.833 459.5,306.167 459.5,459.5C 306.167,459.5 152.833,459.5 -0.5,459.5C -0.5,412.833 -0.5,366.167 -0.5,319.5C 0.248534,320.531 0.915201,321.698 1.5,323C 0.35175,331.088 0.185083,339.254 1,347.5C 4.4101,348.874 4.24344,349.541 0.5,349.5C 0.920156,351.674 0.920156,353.674 0.5,355.5C 1.60344,355.998 2.60344,356.331 3.5,356.5C 2.67504,357.386 1.67504,357.719 0.5,357.5C 0.360072,359.124 1.02674,360.29 2.5,361C 0.675095,362.466 0.175095,364.299 1,366.5C 2.29881,366.034 3.79881,366.034 5.5,366.5C 5.2011,368.604 5.53443,370.604 6.5,372.5C 6.83333,372.333 7.16667,372.167 7.5,372C 7.16667,370.333 6.83333,368.667 6.5,367C 7.83333,366.333 9.16667,365.667 10.5,365C 8.84202,364.275 8.34202,363.108 9,361.5C 12.1103,362.673 12.277,362.173 9.5,360C 11.1667,359 12.5,357.667 13.5,356C 12.451,355.508 11.451,355.674 10.5,356.5C 9.69194,356.192 9.02527,355.692 8.5,355C 10.9249,354.707 12.7582,353.541 14,351.5C 13.7665,347.641 14.7665,343.974 17,340.5C 17.805,342.901 18.6383,342.734 19.5,340C 19.0426,339.586 18.7093,339.086 18.5,338.5C 19.2739,337.289 20.1072,337.289 21,338.5C 24.5023,335.756 24.169,335.09 20,336.5C 19.0546,336.095 18.3879,335.428 18,334.5C 17.6667,334.833 17.3333,335.167 17,335.5C 16.6258,334.584 16.1258,333.75 15.5,333C 16.3859,331.783 17.3859,330.449 18.5,329C 17.5,328.167 16.5,327.333 15.5,326.5C 16.8149,324.024 18.4815,321.857 20.5,320C 19.4851,317.671 17.9851,315.171 16,312.5C 15.5488,314.929 14.7155,315.096 13.5,313C 14.3279,312.085 15.3279,311.419 16.5,311C 14.842,310.275 14.342,309.108 15,307.5C 15.6667,310.167 16.3333,310.167 17,307.5C 17.8113,308.96 18.6446,309.293 19.5,308.5C 18.0094,306.988 16.1761,305.988 14,305.5C 13.3828,304.551 13.5494,303.718 14.5,303C 13.1667,303 11.8333,303 10.5,303C 11.6405,302.259 11.6405,301.425 10.5,300.5C 12.2069,296.864 13.3736,296.864 14,300.5C 16.7344,299.638 16.9011,298.805 14.5,298C 14.8333,297.667 15.1667,297.333 15.5,297C 13.36,294.934 12.6933,292.6 13.5,290C 12.552,289.517 11.552,289.351 10.5,289.5C 10.238,288.022 10.5713,286.689 11.5,285.5C 12.9647,286.609 13.9647,286.109 14.5,284C 12.8739,284.195 11.2072,284.195 9.5,284C 9.83333,283.667 10.1667,283.333 10.5,283C 8.84202,282.275 8.34202,281.108 9,279.5C 9.33333,280.167 9.66667,280.833 10,281.5C 10.6838,280.216 10.5171,279.049 9.5,278C 11.5989,276.318 12.9322,274.652 13.5,273C 10.8333,271.667 10.8333,270.333 13.5,269C 10.4643,269.857 9.79765,268.69 11.5,265.5C 9.64072,262.432 9.64072,259.598 11.5,257C 11.0474,254.307 9.54743,252.473 7,251.5C 6.57575,249.485 5.74241,247.651 4.5,246C 5.02229,245.05 5.68895,244.216 6.5,243.5C 5.35391,242.281 4.35391,240.948 3.5,239.5C 2.5,240.5 1.5,241.5 0.5,242.5C 1.83333,243.5 1.83333,244.5 0.5,245.5C 0.845686,246.696 1.34569,246.696 2,245.5C 2.68365,247.479 2.18365,249.146 0.5,250.5C 0.615848,265.21 0.615848,280.377 0.5,296C 2.92884,296.451 3.09551,297.285 1,298.5C 0.828254,305.346 0.328254,312.013 -0.5,318.5C -0.5,212.167 -0.5,105.833 -0.5,-0.5 Z"/></g>
<g><path style="opacity:1" fill="#2f3f5a" d="M 347.5,119.5 C 346.209,119.737 345.209,119.404 344.5,118.5C 347.087,117.693 347.587,116.359 346,114.5C 343.81,115.584 342.144,114.917 341,112.5C 339.333,113.167 337.667,113.833 336,114.5C 334.764,112.462 332.931,111.295 330.5,111C 327.776,110.73 325.109,110.23 322.5,109.5C 318.249,110.356 314.082,110.689 310,110.5C 309.333,109.833 308.667,109.167 308,108.5C 306.333,109.833 304.667,109.833 303,108.5C 301.667,109.167 300.333,109.833 299,110.5C 296.911,110.255 294.911,110.255 293,110.5C 291.691,108.109 290.691,108.109 290,110.5C 287.46,109.124 285.46,109.79 284,112.5C 280.798,112.406 277.631,112.073 274.5,111.5C 257.646,115.311 241.813,119.978 227,125.5C 226.667,125.167 226.333,124.833 226,124.5C 220.78,128.126 214.946,131.126 208.5,133.5C 207.914,133.291 207.414,132.957 207,132.5C 197.337,139.041 187.17,145.541 176.5,152C 169.39,156.941 163.057,162.775 157.5,169.5C 155.929,170.309 154.262,170.643 152.5,170.5C 152.472,168.418 153.139,166.584 154.5,165C 152.099,164.195 152.266,163.362 155,162.5C 155.333,162.833 155.667,163.167 156,163.5C 156.739,161.779 157.573,160.113 158.5,158.5C 160.61,158.706 162.61,157.873 164.5,156C 163.72,154.927 163.887,153.76 165,152.5C 166.043,156.226 166.543,155.893 166.5,151.5C 167.873,151.657 169.207,151.49 170.5,151C 169.833,150.667 169.167,150.333 168.5,150C 172.68,148.493 173.014,146.993 169.5,145.5C 171.446,143.917 173.446,143.417 175.5,144C 174.542,142.853 174.875,141.853 176.5,141C 174.026,138.572 174.526,138.072 178,139.5C 179,137.167 180,134.833 181,132.5C 182.387,130.699 183.887,130.032 185.5,130.5C 184.624,129.749 183.624,129.249 182.5,129C 183.766,128.691 184.933,128.191 186,127.5C 186.333,127.833 186.667,128.167 187,128.5C 187.022,126.079 188.022,123.746 190,121.5C 191.824,122.749 191.657,123.915 189.5,125C 190.333,125.833 191.167,126.667 192,127.5C 193.217,126.614 194.551,125.614 196,124.5C 197.791,126.513 199.125,126.513 200,124.5C 200.333,125.167 200.667,125.833 201,126.5C 201.465,125.069 202.299,123.903 203.5,123C 203.167,122.667 202.833,122.333 202.5,122C 203.872,121.598 205.205,121.098 206.5,120.5C 207.833,119.5 207.833,118.5 206.5,117.5C 205.549,118.326 204.549,118.492 203.5,118C 204.893,115.822 206.56,114.822 208.5,115C 207.833,114.667 207.167,114.333 206.5,114C 207.833,113.333 207.833,112.667 206.5,112C 204.581,110.066 203.081,110.233 202,112.5C 200.88,109.611 199.213,107.944 197,107.5C 196.085,108.328 195.419,109.328 195,110.5C 194.667,110.167 194.333,109.833 194,109.5C 193.517,110.448 193.351,111.448 193.5,112.5C 192.448,112.649 191.448,112.483 190.5,112C 191.696,111.346 191.696,110.846 190.5,110.5C 189.155,111.347 188.155,112.513 187.5,114C 186.5,114.333 185.5,114.667 184.5,115C 185.833,115.667 185.833,116.333 184.5,117C 181.315,119.089 178.981,118.256 177.5,114.5C 177.412,115.922 177.412,117.422 177.5,119C 175.869,120.836 175.202,120.336 175.5,117.5C 173.856,117.714 172.356,117.38 171,116.5C 170.833,116.833 170.667,117.167 170.5,117.5C 171.376,118.251 172.376,118.751 173.5,119C 172.289,122.009 170.623,124.009 168.5,125C 169.207,127.54 170.873,128.707 173.5,128.5C 173.33,129.822 173.663,130.989 174.5,132C 171.372,134.355 170.205,133.855 171,130.5C 168.614,127.842 166.614,128.175 165,131.5C 164.667,130.833 164.333,130.167 164,129.5C 163.487,131.521 162.32,133.021 160.5,134C 161.28,135.073 161.113,136.24 160,137.5C 159.586,137.043 159.086,136.709 158.5,136.5C 158.089,137.262 157.923,138.262 158,139.5C 156.16,138.167 155.66,138.334 156.5,140C 155.552,140.483 154.552,140.649 153.5,140.5C 153.719,141.675 153.386,142.675 152.5,143.5C 152.705,139.735 151.872,139.735 150,143.5C 148.597,141.802 146.764,141.302 144.5,142C 145.328,141.085 146.328,140.419 147.5,140C 146.216,139.316 145.049,139.483 144,140.5C 143.5,139.333 142.667,138.5 141.5,138C 142.167,137.667 142.833,137.333 143.5,137C 142.54,135.581 141.707,134.081 141,132.5C 140.167,134 139,135.167 137.5,136C 138.449,136.617 139.282,136.451 140,135.5C 140.514,138.028 141.68,140.195 143.5,142C 141.983,143.779 141.149,143.279 141,140.5C 140.51,141.793 140.343,143.127 140.5,144.5C 138.173,144.247 136.173,144.914 134.5,146.5C 133.833,145.833 133.167,145.167 132.5,144.5C 130.865,145.33 129.198,145.497 127.5,145C 128.866,146.6 129.866,148.433 130.5,150.5C 131.833,150.833 133.167,151.167 134.5,151.5C 132.195,152.231 130.362,153.564 129,155.5C 127.983,152.972 126.816,152.972 125.5,155.5C 123.608,152.956 121.775,152.956 120,155.5C 119,154.833 118,154.167 117,153.5C 115.758,155.541 113.925,156.707 111.5,157C 110.107,158.171 109.273,159.671 109,161.5C 108.751,160.376 108.251,159.376 107.5,158.5C 107.167,158.667 106.833,158.833 106.5,159C 107.329,161.823 109.162,163.657 112,164.5C 112.216,166.384 112.883,168.051 114,169.5C 114.318,167.939 115.151,166.772 116.5,166C 116.043,165.586 115.709,165.086 115.5,164.5C 117.193,163.772 118.693,162.772 120,161.5C 120.617,162.449 120.451,163.282 119.5,164C 121.18,164.034 122.68,164.201 124,164.5C 125.779,162.983 125.279,162.149 122.5,162C 124.635,161.365 126.635,161.699 128.5,163C 126.495,164.871 124.161,166.205 121.5,167C 123,167.833 124.167,169 125,170.5C 125.605,168.519 126.605,168.185 128,169.5C 128.324,167.431 129.158,167.098 130.5,168.5C 131.478,168.023 132.311,167.357 133,166.5C 132.383,168.095 132.716,169.428 134,170.5C 134.974,168.122 135.641,168.456 136,171.5C 136.414,171.043 136.914,170.709 137.5,170.5C 138.167,171.5 138.833,172.5 139.5,173.5C 139.833,172.833 140.167,172.167 140.5,171.5C 141.251,172.376 141.751,173.376 142,174.5C 142.414,174.043 142.914,173.709 143.5,173.5C 145.444,174.189 147.444,174.689 149.5,175C 148.167,175.667 148.167,176.333 149.5,177C 147.224,178.03 146.557,179.53 147.5,181.5C 146.127,184.364 144.793,186.698 143.5,188.5C 141.445,186.445 139.779,184.112 138.5,181.5C 136.696,180.284 135.029,179.284 133.5,178.5C 121.114,178.691 113.948,185.358 112,198.5C 110.35,199.891 109.85,201.391 110.5,203C 107.737,208.312 105.403,213.812 103.5,219.5C 104.902,220.842 104.569,221.676 102.5,222C 102.833,222.333 103.167,222.667 103.5,223C 101.349,227.803 99.0161,232.47 96.5,237C 98.3302,237.182 99.9969,236.682 101.5,235.5C 101.461,236.583 101.127,237.583 100.5,238.5C 93.0288,238.984 85.6955,239.984 78.5,241.5C 78.5774,240.25 79.244,239.417 80.5,239C 78.1667,238.333 75.8333,238.333 73.5,239C 65.3479,244.819 58.1812,251.653 52,259.5C 50.4622,257.671 50.9622,256.171 53.5,255C 53.1667,254.667 52.8333,254.333 52.5,254C 53.1905,252.933 53.6905,251.766 54,250.5C 57.6896,246.978 61.1896,243.311 64.5,239.5C 63.1501,237.98 61.8168,237.313 60.5,237.5C 60.9766,236.069 61.6433,234.736 62.5,233.5C 64.4134,234.373 66.2467,235.373 68,236.5C 68.3742,235.584 68.8742,234.75 69.5,234C 68.062,233.781 66.7287,233.281 65.5,232.5C 66.2739,231.289 67.1072,231.289 68,232.5C 69.487,231.747 69.6537,230.914 68.5,230C 71.4576,229.771 73.9576,228.604 76,226.5C 76.5074,225.004 76.0074,223.837 74.5,223C 75.646,222.355 76.646,221.522 77.5,220.5C 77.6691,221.397 78.0024,222.397 78.5,223.5C 79.4255,222.359 80.2588,222.359 81,223.5C 81.6667,222.5 81.6667,221.5 81,220.5C 80.3457,221.696 79.8457,221.696 79.5,220.5C 79.8333,220.167 80.1667,219.833 80.5,219.5C 83.6443,218.986 86.6443,218.153 89.5,217C 87.6161,216.784 85.9494,216.117 84.5,215C 85.3247,213.312 86.3247,213.145 87.5,214.5C 88.1667,213.5 88.8333,212.5 89.5,211.5C 89.2964,212.529 89.7964,213.529 91,214.5C 91.8333,211 94,208.833 97.5,208C 95.2329,206.919 95.0662,205.419 97,203.5C 97.3333,203.833 97.6667,204.167 98,204.5C 98.513,202.479 99.6797,200.979 101.5,200C 101.041,198.057 102.041,196.724 104.5,196C 101.833,195.333 101.833,194.667 104.5,194C 104.043,193.586 103.709,193.086 103.5,192.5C 105.276,191.685 105.943,190.518 105.5,189C 104.258,185.643 103.424,185.81 103,189.5C 102.505,187.527 102.338,185.527 102.5,183.5C 100.413,181.98 97.4126,180.98 93.5,180.5C 92.2624,184.311 91.5958,184.311 91.5,180.5C 90.1667,180.5 88.8333,180.5 87.5,180.5C 86.6126,179.038 85.6126,177.205 84.5,175C 83.2559,174.544 82.4226,175.044 82,176.5C 81.2496,175.874 80.4162,175.374 79.5,175C 83.0142,173.762 85.3475,171.429 86.5,168C 86.1667,167.833 85.8333,167.667 85.5,167.5C 84.4164,168.665 83.5831,169.998 83,171.5C 82.6411,168.456 81.9745,168.122 81,170.5C 77.8782,167.633 78.3782,166.467 82.5,167C 81.2092,164.91 81.8758,163.576 84.5,163C 83.5,161.333 82.5,159.667 81.5,158C 83.1981,156.597 83.6981,154.764 83,152.5C 83.3333,152.833 83.6667,153.167 84,153.5C 85.6158,152.455 87.2825,151.455 89,150.5C 90.0309,152.421 91.5309,152.421 93.5,150.5C 94.5736,147.882 93.907,145.715 91.5,144C 92.5,143.5 93.5,143 94.5,142.5C 94.8333,143.167 95.1667,143.833 95.5,144.5C 96.2811,143.271 96.7811,141.938 97,140.5C 97.6667,141.833 98.3333,143.167 99,144.5C 99.6838,143.216 99.5171,142.049 98.5,141C 99.5929,139.635 100.926,139.301 102.5,140C 101.366,141.016 101.699,141.683 103.5,142C 102.483,143.049 102.316,144.216 103,145.5C 104.193,141.64 106.693,139.14 110.5,138C 109.065,135.733 109.398,133.733 111.5,132C 110.833,130.667 109.833,129.667 108.5,129C 109,128.5 109.5,128 110,127.5C 111.527,129.221 112.527,131.221 113,133.5C 113.238,130.692 112.904,128.026 112,125.5C 112.915,126.328 113.581,127.328 114,128.5C 114.925,127.953 115.758,127.287 116.5,126.5C 115.833,126.167 115.167,125.833 114.5,125.5C 115,125.167 115.5,124.833 116,124.5C 118.672,125.839 120.672,127.839 122,130.5C 124.76,126.101 123.594,122.601 118.5,120C 119.662,119.173 120.829,118.34 122,117.5C 122.5,117.833 123,118.167 123.5,118.5C 122.833,118.833 122.167,119.167 121.5,119.5C 122.831,120.592 123.664,121.926 124,123.5C 124.333,122.167 124.667,120.833 125,119.5C 126,118.167 127,118.167 128,119.5C 128.333,117.833 128.667,116.167 129,114.5C 130.104,119.309 131.937,119.642 134.5,115.5C 131.79,114.086 130.79,112.086 131.5,109.5C 132.799,110.09 133.632,111.09 134,112.5C 134.333,111.833 134.667,111.167 135,110.5C 137.258,110.251 139.424,110.751 141.5,112C 140.833,111 140.167,110 139.5,109C 140.956,108.577 141.456,107.744 141,106.5C 138.744,108.18 136.578,109.18 134.5,109.5C 133.494,109.062 133.494,108.396 134.5,107.5C 133.624,106.749 132.624,106.249 131.5,106C 133.076,105.56 134.41,104.727 135.5,103.5C 136.216,104.311 137.05,104.978 138,105.5C 141.628,105.576 143.961,103.576 145,99.5C 145.333,100.167 145.667,100.833 146,101.5C 146.196,99.7139 147.029,98.3805 148.5,97.5C 149.258,98.8114 150.258,99.3114 151.5,99C 150.273,97.4126 150.606,96.0793 152.5,95C 151.069,94.5348 149.903,93.7014 149,92.5C 146.919,93.3331 144.752,93.3331 142.5,92.5C 142.649,91.448 142.483,90.448 142,89.5C 141.346,90.6956 140.846,90.6956 140.5,89.5C 141.325,88.6143 142.325,88.281 143.5,88.5C 143.459,92.2434 144.126,92.4101 145.5,89C 147.615,88.4427 149.615,87.6094 151.5,86.5C 152.251,87.376 152.751,88.376 153,89.5C 153.792,87.4127 154.959,85.5793 156.5,84C 154.433,83.4644 152.599,83.9644 151,85.5C 148.6,83.9272 146.1,82.4272 143.5,81C 147.144,79.1697 146.81,77.5031 142.5,76C 144.367,75.2888 145.867,75.7888 147,77.5C 147.336,75.9255 148.169,74.5922 149.5,73.5C 149.64,74.5695 149.64,75.7361 149.5,77C 152.193,76.1368 153.86,77.3035 154.5,80.5C 152.238,82.5076 152.738,82.841 156,81.5C 157.563,84.0443 159.063,84.0443 160.5,81.5C 163.028,82.5174 163.028,83.6841 160.5,85C 162.762,85.6419 164.929,86.4752 167,87.5C 168.368,86.0069 168.535,84.5069 167.5,83C 168,82.8333 168.5,82.6667 169,82.5C 169.487,83.9315 170.821,85.2648 173,86.5C 173.393,84.8008 172.893,83.3008 171.5,82C 172.237,79.2007 173.07,79.0341 174,81.5C 174.561,80.9781 175.228,80.6448 176,80.5C 177.011,80.8919 177.511,81.5585 177.5,82.5C 179.436,80.0221 181.436,80.0221 183.5,82.5C 186.1,79.959 186.1,77.459 183.5,75C 185.107,74.8849 186.607,75.3849 188,76.5C 188.945,76.0946 189.612,75.428 190,74.5C 191,75.8333 192,75.8333 193,74.5C 193.308,75.3081 193.808,75.9747 194.5,76.5C 194.296,75.4706 194.796,74.4706 196,73.5C 196.333,73.8333 196.667,74.1667 197,74.5C 197.483,73.552 197.649,72.552 197.5,71.5C 196.325,71.719 195.325,71.3857 194.5,70.5C 195.698,70.0604 196.865,69.727 198,69.5C 198.667,70.8333 199.333,72.1667 200,73.5C 200.359,70.4557 201.026,70.1224 202,72.5C 203.044,71.3774 203.71,70.0441 204,68.5C 204.219,69.938 204.719,71.2713 205.5,72.5C 205.109,71.2815 205.776,70.4482 207.5,70C 206.833,69.6667 206.167,69.3333 205.5,69C 207.524,66.1755 209.691,66.3422 212,69.5C 212.743,66.4888 214.076,63.8221 216,61.5C 216.333,63.0468 215.833,64.3801 214.5,65.5C 215.098,66.7946 215.598,68.1279 216,69.5C 217.399,69.5012 218.899,69.8346 220.5,70.5C 222.498,68.2159 225.164,65.8825 228.5,63.5C 229.145,62.2679 229.311,60.9346 229,59.5C 230.84,60.8331 231.34,60.6665 230.5,59C 231.913,55.7163 233.246,55.7163 234.5,59C 233.904,60.9966 232.904,63.1632 231.5,65.5C 231.977,66.4776 232.643,67.3109 233.5,68C 232.549,68.7175 232.383,69.5509 233,70.5C 234,69.1667 235,69.1667 236,70.5C 236.311,69.2575 235.811,68.2575 234.5,67.5C 235.667,65.8333 236.833,64.1667 238,62.5C 238.44,64.0762 239.273,65.4096 240.5,66.5C 240.154,67.6956 239.654,67.6956 239,66.5C 238.691,67.7659 238.191,68.9326 237.5,70C 238.744,70.4561 239.577,69.9561 240,68.5C 241.255,69.2106 242.421,70.044 243.5,71C 241.413,71.7922 239.579,72.9588 238,74.5C 237.667,73.8333 237.333,73.1667 237,72.5C 236.117,75.1024 234.617,77.2691 232.5,79C 234.899,79.7311 237.065,80.8978 239,82.5C 240.587,81.273 241.921,81.6063 243,83.5C 245.089,83.2549 247.089,83.2549 249,83.5C 249.333,84.1667 249.667,84.8333 250,85.5C 251.341,82.8134 253.007,81.1468 255,80.5C 255.972,82.3049 257.139,83.9716 258.5,85.5C 257.674,86.451 257.508,87.451 258,88.5C 258.667,87.1667 259.333,87.1667 260,88.5C 259.617,86.5622 259.784,84.8955 260.5,83.5C 261.862,85.012 262.196,86.512 261.5,88C 262.308,88.3076 262.975,88.8076 263.5,89.5C 262.286,91.0691 260.619,91.9024 258.5,92C 260.176,93.1769 261.509,94.6769 262.5,96.5C 262.835,94.9974 262.835,93.664 262.5,92.5C 266.704,94.9077 270.204,94.5744 273,91.5C 273.284,93.8856 274.284,94.5523 276,93.5C 277,94.5 278,95.5 279,96.5C 279.29,94.9559 279.956,93.6226 281,92.5C 281.972,94.3049 283.139,95.9716 284.5,97.5C 286.481,96.8946 286.815,95.8946 285.5,94.5C 285.808,93.6919 286.308,93.0253 287,92.5C 291.542,94.1536 295.042,92.8202 297.5,88.5C 298.478,88.9767 299.311,89.6433 300,90.5C 300.542,85.2792 301.376,85.2792 302.5,90.5C 304.998,87.8087 307.165,88.142 309,91.5C 310.5,90 312,88.5 313.5,87C 312.04,86.1887 311.707,85.3554 312.5,84.5C 316.138,87.1768 319.138,90.5102 321.5,94.5C 322.5,94 323.5,93.5 324.5,93C 324.167,92.6667 323.833,92.3333 323.5,92C 324.5,91.3333 325.5,91.3333 326.5,92C 325.304,92.6543 325.304,93.1543 326.5,93.5C 328.134,93.032 329.3,92.032 330,90.5C 331.053,92.7427 332.387,95.076 334,97.5C 335.628,96.9034 337.295,97.2367 339,98.5C 339.667,97.1667 340.667,96.1667 342,95.5C 342.318,97.0609 343.151,98.2276 344.5,99C 342.842,99.7253 342.342,100.892 343,102.5C 343.667,101.833 344.333,101.167 345,100.5C 346.583,102.055 348.416,103.222 350.5,104C 349.5,104.333 348.5,104.667 347.5,105C 348.833,105.667 348.833,106.333 347.5,107C 349.759,109.329 350.926,111.829 351,114.5C 351.249,113.376 351.749,112.376 352.5,111.5C 354.316,113.441 356.316,114.108 358.5,113.5C 360.132,116.193 362.299,117.193 365,116.5C 365.249,117.624 365.749,118.624 366.5,119.5C 366.833,118.833 367.167,118.167 367.5,117.5C 368.7,118.531 370.034,119.365 371.5,120C 371.13,121.61 371.797,123.11 373.5,124.5C 373.833,123.833 374.167,123.167 374.5,122.5C 377.724,124.852 381.724,127.019 386.5,129C 384.122,129.974 384.456,130.641 387.5,131C 386.377,132.044 385.044,132.71 383.5,133C 384.5,133.333 385.5,133.667 386.5,134C 386.167,134.333 385.833,134.667 385.5,135C 388.387,138.199 389.887,137.366 390,132.5C 390.374,133.416 390.874,134.25 391.5,135C 389.964,136.599 389.464,138.433 390,140.5C 392.058,136.908 393.725,136.908 395,140.5C 395.333,140.167 395.667,139.833 396,139.5C 396.54,141.135 396.04,142.468 394.5,143.5C 395.025,144.192 395.692,144.692 396.5,145C 395.786,146.343 396.12,147.676 397.5,149C 399.085,149.085 400.418,149.251 401.5,149.5C 400.169,150.592 399.336,151.926 399,153.5C 397.933,152.809 396.766,152.309 395.5,152C 395.835,150.497 395.835,149.164 395.5,148C 392.23,147.063 390.397,144.896 390,141.5C 389.667,142.167 389.333,142.833 389,143.5C 388.163,141.156 386.829,139.156 385,137.5C 382.213,136.81 379.713,134.977 377.5,132C 375.044,130.289 372.377,128.956 369.5,128C 370.458,126.853 370.125,125.853 368.5,125C 365.262,124.768 362.762,123.268 361,120.5C 359.284,121.552 358.284,120.886 358,118.5C 357.667,119.167 357.333,119.833 357,120.5C 354.379,119.689 352.045,118.355 350,116.5C 348.955,117.373 348.122,118.373 347.5,119.5 Z"/></g>
<g><path style="opacity:1" fill="#24171c" d="M 344.5,118.5 C 345.209,119.404 346.209,119.737 347.5,119.5C 347.5,120.167 347.833,120.5 348.5,120.5C 351.34,123.278 354.673,125.611 358.5,127.5C 358.167,128.167 357.833,128.833 357.5,129.5C 360.623,130.951 362.623,133.284 363.5,136.5C 359.007,134.421 354.674,132.088 350.5,129.5C 332.405,122.058 313.739,119.391 294.5,121.5C 288.596,121.321 282.929,121.988 277.5,123.5C 267.258,124.348 257.258,126.348 247.5,129.5C 246.761,129.631 246.094,129.464 245.5,129C 246.747,127.506 246.747,126.006 245.5,124.5C 245.167,125.167 244.833,125.833 244.5,126.5C 242.591,125.652 240.591,125.318 238.5,125.5C 273.052,112.481 308.386,110.147 344.5,118.5 Z"/></g>
<g><path style="opacity:1" fill="#e19036" d="M 294.5,121.5 C 313.739,119.391 332.405,122.058 350.5,129.5C 353.094,133.272 355.927,136.939 359,140.5C 362.151,146.488 363.151,152.821 362,159.5C 360.836,162.495 358.669,164.161 355.5,164.5C 337.504,145.502 315.504,134.502 289.5,131.5C 293.555,131.352 294.055,130.352 291,128.5C 290.251,127.365 290.417,126.365 291.5,125.5C 293.925,123.855 296.592,122.689 299.5,122C 297.866,121.506 296.199,121.34 294.5,121.5 Z"/></g>
<g><path style="opacity:1" fill="#f1aa4c" d="M 294.5,121.5 C 296.199,121.34 297.866,121.506 299.5,122C 296.592,122.689 293.925,123.855 291.5,125.5C 290.417,126.365 290.251,127.365 291,128.5C 294.055,130.352 293.555,131.352 289.5,131.5C 281.232,129.546 272.899,129.212 264.5,130.5C 269.818,131.792 275.151,132.792 280.5,133.5C 280.64,135.124 279.973,136.29 278.5,137C 278.957,137.414 279.291,137.914 279.5,138.5C 277.87,141.276 277.203,144.276 277.5,147.5C 273.5,147.5 269.5,147.5 265.5,147.5C 253.854,146.667 242.187,146.334 230.5,146.5C 238.01,145.833 245.677,145.167 253.5,144.5C 251.009,143.459 251.009,142.626 253.5,142C 253.043,141.586 252.709,141.086 252.5,140.5C 253.981,139.52 255.315,138.353 256.5,137C 256.167,136.667 255.833,136.333 255.5,136C 256.448,135.517 257.448,135.351 258.5,135.5C 258.351,134.448 258.517,133.448 259,132.5C 260.771,131.696 262.271,130.529 263.5,129C 269.855,129.341 275.522,127.674 280.5,124C 279.552,123.517 278.552,123.351 277.5,123.5C 282.929,121.988 288.596,121.321 294.5,121.5 Z"/></g>
<g><path style="opacity:1" fill="#f6bc5b" d="M 277.5,123.5 C 278.552,123.351 279.552,123.517 280.5,124C 275.522,127.674 269.855,129.341 263.5,129C 262.271,130.529 260.771,131.696 259,132.5C 258.517,133.448 258.351,134.448 258.5,135.5C 257.448,135.351 256.448,135.517 255.5,136C 255.833,136.333 256.167,136.667 256.5,137C 255.315,138.353 253.981,139.52 252.5,140.5C 252.709,141.086 253.043,141.586 253.5,142C 251.009,142.626 251.009,143.459 253.5,144.5C 245.677,145.167 238.01,145.833 230.5,146.5C 227.167,146.5 223.833,146.5 220.5,146.5C 219.879,144.002 220.545,141.668 222.5,139.5C 230.722,135.92 239.055,132.587 247.5,129.5C 257.258,126.348 267.258,124.348 277.5,123.5 Z"/></g>
<g><path style="opacity:1" fill="#db8c34" d="M 280.5,133.5 C 289.477,133.704 298.144,135.37 306.5,138.5C 306.097,140.367 306.097,142.367 306.5,144.5C 305.262,148.807 302.596,152.474 298.5,155.5C 287.573,152.076 276.573,149.409 265.5,147.5C 269.5,147.5 273.5,147.5 277.5,147.5C 277.203,144.276 277.87,141.276 279.5,138.5C 279.291,137.914 278.957,137.414 278.5,137C 279.973,136.29 280.64,135.124 280.5,133.5 Z"/></g>
<g><path style="opacity:1" fill="#ce782e" d="M 306.5,138.5 C 313.99,140.832 321.323,143.665 328.5,147C 335.119,151.133 341.119,155.966 346.5,161.5C 345.526,163.085 344.026,164.085 342,164.5C 341.374,162.009 340.541,162.009 339.5,164.5C 337.885,165.154 336.218,165.654 334.5,166C 334.038,167.722 333.872,169.555 334,171.5C 333.174,169.595 332.007,169.261 330.5,170.5C 331.59,171.609 331.59,172.609 330.5,173.5C 329.583,172.873 328.583,172.539 327.5,172.5C 318.593,165.532 308.927,159.865 298.5,155.5C 302.596,152.474 305.262,148.807 306.5,144.5C 306.097,142.367 306.097,140.367 306.5,138.5 Z"/></g>
<g><path style="opacity:1" fill="#2b191c" d="M 247.5,129.5 C 239.055,132.587 230.722,135.92 222.5,139.5C 202.771,146.297 185.771,157.297 171.5,172.5C 167.037,176.754 163.037,181.421 159.5,186.5C 157.467,189.523 155.467,192.523 153.5,195.5C 153.53,194.503 153.03,193.836 152,193.5C 150.779,194.272 149.779,195.272 149,196.5C 148.667,195.833 148.333,195.167 148,194.5C 146.479,199.812 143.979,204.479 140.5,208.5C 146.338,190.676 156.338,175.509 170.5,163C 190.336,145.578 213.003,133.078 238.5,125.5C 240.591,125.318 242.591,125.652 244.5,126.5C 244.833,125.833 245.167,125.167 245.5,124.5C 246.747,126.006 246.747,127.506 245.5,129C 246.094,129.464 246.761,129.631 247.5,129.5 Z"/></g>
<g><path style="opacity:1" fill="#f5c065" d="M 222.5,139.5 C 220.545,141.668 219.879,144.002 220.5,146.5C 217.772,146.171 215.438,146.837 213.5,148.5C 212.444,149.877 211.111,150.71 209.5,151C 210.308,151.308 210.975,151.808 211.5,152.5C 208.859,157.839 206.192,162.672 203.5,167C 204.071,168.599 205.071,169.766 206.5,170.5C 204.708,170.366 203.042,170.699 201.5,171.5C 193.004,172.458 184.504,173.458 176,174.5C 174.014,174.431 172.514,173.765 171.5,172.5C 185.771,157.297 202.771,146.297 222.5,139.5 Z"/></g>
<g><path style="opacity:1" fill="#e1923a" d="M 224.5,148.5 C 236.747,148.298 248.747,149.298 260.5,151.5C 259.047,152.825 259.381,153.658 261.5,154C 260.313,155.019 259.313,156.186 258.5,157.5C 259.101,159.725 259.434,161.891 259.5,164C 255.605,164.933 253.438,167.433 253,171.5C 249.379,171.358 245.545,171.358 241.5,171.5C 238.833,171.167 236.167,170.833 233.5,170.5C 233.407,166.216 235.407,162.716 239.5,160C 239.043,159.586 238.709,159.086 238.5,158.5C 240.387,155.87 242.054,153.703 243.5,152C 240.334,149.824 238.168,150.657 237,154.5C 236.727,152.671 235.893,151.171 234.5,150C 231.854,149.503 229.187,149.336 226.5,149.5C 225.508,149.672 224.842,149.338 224.5,148.5 Z"/></g>
<g><path style="opacity:1" fill="#f3b254" d="M 213.5,148.5 C 217.167,148.5 220.833,148.5 224.5,148.5C 224.842,149.338 225.508,149.672 226.5,149.5C 227.091,150.151 227.757,150.818 228.5,151.5C 225.767,155.88 222.767,160.047 219.5,164C 220.641,164.741 220.641,165.575 219.5,166.5C 218.119,167.881 216.785,169.215 215.5,170.5C 212.5,170.5 209.5,170.5 206.5,170.5C 205.071,169.766 204.071,168.599 203.5,167C 206.192,162.672 208.859,157.839 211.5,152.5C 210.975,151.808 210.308,151.308 209.5,151C 211.111,150.71 212.444,149.877 213.5,148.5 Z"/></g>
<g><path style="opacity:1" fill="#c06828" d="M 350.5,129.5 C 354.674,132.088 359.007,134.421 363.5,136.5C 374.975,145.807 384.475,156.807 392,169.5C 397.627,180.136 400.127,191.469 399.5,203.5C 398.842,204.398 398.176,205.398 397.5,206.5C 393.939,207.794 393.606,206.96 396.5,204C 394.241,202.16 394.241,200.16 396.5,198C 395.646,193.923 394.98,193.756 394.5,197.5C 391.282,197.651 390.949,198.484 393.5,200C 392.671,201.816 391.837,203.649 391,205.5C 390.667,204.5 390.333,203.5 390,202.5C 388.167,203.667 386.333,204.833 384.5,206C 384.833,206.333 385.167,206.667 385.5,207C 383.651,208.093 381.984,209.426 380.5,211C 379.551,211.617 378.718,211.451 378,210.5C 377.383,211.449 377.549,212.282 378.5,213C 377.551,213.617 376.718,213.451 376,212.5C 375,213.5 374,214.5 373,215.5C 372.333,211.5 371.667,211.5 371,215.5C 370.333,216.833 369.667,216.833 369,215.5C 366.264,217.029 366.098,218.529 368.5,220C 366.892,220.658 365.725,220.158 365,218.5C 362.912,219.308 360.912,220.308 359,221.5C 357.365,220.151 355.865,220.318 354.5,222C 356.595,222.556 356.762,223.056 355,223.5C 354.055,223.095 353.388,222.428 353,221.5C 351.184,222.329 349.351,223.163 347.5,224C 346.167,224.667 346.167,225.333 347.5,226C 342.888,227.771 338.221,228.438 333.5,228C 332.366,229.016 332.699,229.683 334.5,230C 331.509,231.465 329.009,230.631 327,227.5C 326.333,228.833 325.667,228.833 325,227.5C 321.578,222.655 319.245,217.322 318,211.5C 316.693,209.808 315.193,208.475 313.5,207.5C 311.833,204.833 310.167,202.167 308.5,199.5C 310.277,199.786 311.944,200.453 313.5,201.5C 315.541,200.009 317.041,200.342 318,202.5C 318.333,201.833 318.667,201.167 319,200.5C 320.333,200.5 321.667,200.5 323,200.5C 323.333,199.833 323.667,199.167 324,198.5C 325.572,202.525 326.739,202.358 327.5,198C 330.115,196.148 332.781,195.315 335.5,195.5C 335.84,192.493 335.84,189.493 335.5,186.5C 339.501,190.73 340.335,190.064 338,184.5C 334.664,180.332 331.164,176.332 327.5,172.5C 328.583,172.539 329.583,172.873 330.5,173.5C 331.59,172.609 331.59,171.609 330.5,170.5C 332.007,169.261 333.174,169.595 334,171.5C 333.872,169.555 334.038,167.722 334.5,166C 336.218,165.654 337.885,165.154 339.5,164.5C 340.541,162.009 341.374,162.009 342,164.5C 344.026,164.085 345.526,163.085 346.5,161.5C 350.651,165.759 354.818,170.092 359,174.5C 359.604,170.585 358.437,167.251 355.5,164.5C 358.669,164.161 360.836,162.495 362,159.5C 363.151,152.821 362.151,146.488 359,140.5C 355.927,136.939 353.094,133.272 350.5,129.5 Z"/></g>
<g><path style="opacity:1" fill="#d78534" d="M 260.5,151.5 C 264.519,151.646 268.519,151.979 272.5,152.5C 272.771,154.38 272.104,155.713 270.5,156.5C 269.448,156.351 268.448,156.517 267.5,157C 267.833,157.333 268.167,157.667 268.5,158C 271.742,158.406 274.742,159.239 277.5,160.5C 277.918,161.222 278.584,161.722 279.5,162C 279.095,166.775 276.762,170.775 272.5,174C 272.833,174.333 273.167,174.667 273.5,175C 270.606,176.567 267.606,176.733 264.5,175.5C 256.687,174.254 249.021,172.921 241.5,171.5C 245.545,171.358 249.379,171.358 253,171.5C 253.438,167.433 255.605,164.933 259.5,164C 259.434,161.891 259.101,159.725 258.5,157.5C 259.313,156.186 260.313,155.019 261.5,154C 259.381,153.658 259.047,152.825 260.5,151.5 Z"/></g>
<g><path style="opacity:1" fill="#2b3e5c" d="M 344.5,118.5 C 308.386,110.147 273.052,112.481 238.5,125.5C 213.003,133.078 190.336,145.578 170.5,163C 156.338,175.509 146.338,190.676 140.5,208.5C 135.73,218.894 134.23,229.894 136,241.5C 138.346,246.204 141.18,250.537 144.5,254.5C 144.665,257.85 144.498,261.183 144,264.5C 140.868,255.869 135.368,249.202 127.5,244.5C 125.034,244.101 123.034,242.935 121.5,241C 128.104,225.123 134.437,209.123 140.5,193C 140.5,188.667 138.5,185.667 134.5,184C 127.177,181.903 121.677,184.403 118,191.5C 113.343,204.471 108.843,217.471 104.5,230.5C 103.263,231.965 102.263,233.632 101.5,235.5C 99.9969,236.682 98.3302,237.182 96.5,237C 99.0161,232.47 101.349,227.803 103.5,223C 103.167,222.667 102.833,222.333 102.5,222C 104.569,221.676 104.902,220.842 103.5,219.5C 105.403,213.812 107.737,208.312 110.5,203C 109.85,201.391 110.35,199.891 112,198.5C 113.948,185.358 121.114,178.691 133.5,178.5C 135.029,179.284 136.696,180.284 138.5,181.5C 139.779,184.112 141.445,186.445 143.5,188.5C 144.793,186.698 146.127,184.364 147.5,181.5C 146.557,179.53 147.224,178.03 149.5,177C 148.167,176.333 148.167,175.667 149.5,175C 147.444,174.689 145.444,174.189 143.5,173.5C 142.914,173.709 142.414,174.043 142,174.5C 141.751,173.376 141.251,172.376 140.5,171.5C 140.167,172.167 139.833,172.833 139.5,173.5C 138.833,172.5 138.167,171.5 137.5,170.5C 136.914,170.709 136.414,171.043 136,171.5C 135.641,168.456 134.974,168.122 134,170.5C 132.716,169.428 132.383,168.095 133,166.5C 132.311,167.357 131.478,168.023 130.5,168.5C 129.158,167.098 128.324,167.431 128,169.5C 126.605,168.185 125.605,168.519 125,170.5C 124.167,169 123,167.833 121.5,167C 124.161,166.205 126.495,164.871 128.5,163C 126.635,161.699 124.635,161.365 122.5,162C 125.279,162.149 125.779,162.983 124,164.5C 122.68,164.201 121.18,164.034 119.5,164C 120.451,163.282 120.617,162.449 120,161.5C 118.693,162.772 117.193,163.772 115.5,164.5C 115.709,165.086 116.043,165.586 116.5,166C 115.151,166.772 114.318,167.939 114,169.5C 112.883,168.051 112.216,166.384 112,164.5C 109.162,163.657 107.329,161.823 106.5,159C 106.833,158.833 107.167,158.667 107.5,158.5C 108.251,159.376 108.751,160.376 109,161.5C 109.273,159.671 110.107,158.171 111.5,157C 113.925,156.707 115.758,155.541 117,153.5C 118,154.167 119,154.833 120,155.5C 121.775,152.956 123.608,152.956 125.5,155.5C 126.816,152.972 127.983,152.972 129,155.5C 130.362,153.564 132.195,152.231 134.5,151.5C 133.167,151.167 131.833,150.833 130.5,150.5C 129.866,148.433 128.866,146.6 127.5,145C 129.198,145.497 130.865,145.33 132.5,144.5C 133.167,145.167 133.833,145.833 134.5,146.5C 136.173,144.914 138.173,144.247 140.5,144.5C 140.343,143.127 140.51,141.793 141,140.5C 141.149,143.279 141.983,143.779 143.5,142C 141.68,140.195 140.514,138.028 140,135.5C 139.282,136.451 138.449,136.617 137.5,136C 139,135.167 140.167,134 141,132.5C 141.707,134.081 142.54,135.581 143.5,137C 142.833,137.333 142.167,137.667 141.5,138C 142.667,138.5 143.5,139.333 144,140.5C 145.049,139.483 146.216,139.316 147.5,140C 146.328,140.419 145.328,141.085 144.5,142C 146.764,141.302 148.597,141.802 150,143.5C 151.872,139.735 152.705,139.735 152.5,143.5C 153.386,142.675 153.719,141.675 153.5,140.5C 154.552,140.649 155.552,140.483 156.5,140C 155.66,138.334 156.16,138.167 158,139.5C 157.923,138.262 158.089,137.262 158.5,136.5C 159.086,136.709 159.586,137.043 160,137.5C 161.113,136.24 161.28,135.073 160.5,134C 162.32,133.021 163.487,131.521 164,129.5C 164.333,130.167 164.667,130.833 165,131.5C 166.614,128.175 168.614,127.842 171,130.5C 170.205,133.855 171.372,134.355 174.5,132C 173.663,130.989 173.33,129.822 173.5,128.5C 170.873,128.707 169.207,127.54 168.5,125C 170.623,124.009 172.289,122.009 173.5,119C 172.376,118.751 171.376,118.251 170.5,117.5C 170.667,117.167 170.833,116.833 171,116.5C 172.356,117.38 173.856,117.714 175.5,117.5C 175.202,120.336 175.869,120.836 177.5,119C 177.412,117.422 177.412,115.922 177.5,114.5C 178.981,118.256 181.315,119.089 184.5,117C 185.833,116.333 185.833,115.667 184.5,115C 185.5,114.667 186.5,114.333 187.5,114C 188.155,112.513 189.155,111.347 190.5,110.5C 191.696,110.846 191.696,111.346 190.5,112C 191.448,112.483 192.448,112.649 193.5,112.5C 193.351,111.448 193.517,110.448 194,109.5C 194.333,109.833 194.667,110.167 195,110.5C 195.419,109.328 196.085,108.328 197,107.5C 199.213,107.944 200.88,109.611 202,112.5C 203.081,110.233 204.581,110.066 206.5,112C 207.833,112.667 207.833,113.333 206.5,114C 207.167,114.333 207.833,114.667 208.5,115C 206.56,114.822 204.893,115.822 203.5,118C 204.549,118.492 205.549,118.326 206.5,117.5C 207.833,118.5 207.833,119.5 206.5,120.5C 205.205,121.098 203.872,121.598 202.5,122C 202.833,122.333 203.167,122.667 203.5,123C 202.299,123.903 201.465,125.069 201,126.5C 200.667,125.833 200.333,125.167 200,124.5C 199.125,126.513 197.791,126.513 196,124.5C 194.551,125.614 193.217,126.614 192,127.5C 191.167,126.667 190.333,125.833 189.5,125C 191.657,123.915 191.824,122.749 190,121.5C 188.022,123.746 187.022,126.079 187,128.5C 186.667,128.167 186.333,127.833 186,127.5C 184.933,128.191 183.766,128.691 182.5,129C 183.624,129.249 184.624,129.749 185.5,130.5C 183.887,130.032 182.387,130.699 181,132.5C 180,134.833 179,137.167 178,139.5C 174.526,138.072 174.026,138.572 176.5,141C 174.875,141.853 174.542,142.853 175.5,144C 173.446,143.417 171.446,143.917 169.5,145.5C 173.014,146.993 172.68,148.493 168.5,150C 169.167,150.333 169.833,150.667 170.5,151C 169.207,151.49 167.873,151.657 166.5,151.5C 166.543,155.893 166.043,156.226 165,152.5C 163.887,153.76 163.72,154.927 164.5,156C 162.61,157.873 160.61,158.706 158.5,158.5C 157.573,160.113 156.739,161.779 156,163.5C 155.667,163.167 155.333,162.833 155,162.5C 152.266,163.362 152.099,164.195 154.5,165C 153.139,166.584 152.472,168.418 152.5,170.5C 154.262,170.643 155.929,170.309 157.5,169.5C 163.057,162.775 169.39,156.941 176.5,152C 187.17,145.541 197.337,139.041 207,132.5C 207.414,132.957 207.914,133.291 208.5,133.5C 214.946,131.126 220.78,128.126 226,124.5C 226.333,124.833 226.667,125.167 227,125.5C 241.813,119.978 257.646,115.311 274.5,111.5C 277.631,112.073 280.798,112.406 284,112.5C 285.46,109.79 287.46,109.124 290,110.5C 290.691,108.109 291.691,108.109 293,110.5C 294.911,110.255 296.911,110.255 299,110.5C 300.333,109.833 301.667,109.167 303,108.5C 304.667,109.833 306.333,109.833 308,108.5C 308.667,109.167 309.333,109.833 310,110.5C 314.082,110.689 318.249,110.356 322.5,109.5C 325.109,110.23 327.776,110.73 330.5,111C 332.931,111.295 334.764,112.462 336,114.5C 337.667,113.833 339.333,113.167 341,112.5C 342.144,114.917 343.81,115.584 346,114.5C 347.587,116.359 347.087,117.693 344.5,118.5 Z"/></g>
<g><path style="opacity:1" fill="#eba246" d="M 226.5,149.5 C 229.187,149.336 231.854,149.503 234.5,150C 235.893,151.171 236.727,152.671 237,154.5C 238.168,150.657 240.334,149.824 243.5,152C 242.054,153.703 240.387,155.87 238.5,158.5C 238.709,159.086 239.043,159.586 239.5,160C 235.407,162.716 233.407,166.216 233.5,170.5C 227.5,170.5 221.5,170.5 215.5,170.5C 216.785,169.215 218.119,167.881 219.5,166.5C 220.641,165.575 220.641,164.741 219.5,164C 222.767,160.047 225.767,155.88 228.5,151.5C 227.757,150.818 227.091,150.151 226.5,149.5 Z"/></g>
<g><path style="opacity:1" fill="#863b1a" d="M 270.5,156.5 C 278.052,158.581 285.719,160.748 293.5,163C 288.087,162.924 282.753,162.091 277.5,160.5C 274.742,159.239 271.742,158.406 268.5,158C 268.167,157.667 267.833,157.333 267.5,157C 268.448,156.517 269.448,156.351 270.5,156.5 Z"/></g>
<g><path style="opacity:1" fill="#a9542e" d="M 289.5,131.5 C 315.504,134.502 337.504,145.502 355.5,164.5C 358.437,167.251 359.604,170.585 359,174.5C 354.818,170.092 350.651,165.759 346.5,161.5C 341.119,155.966 335.119,151.133 328.5,147C 321.323,143.665 313.99,140.832 306.5,138.5C 298.144,135.37 289.477,133.704 280.5,133.5C 275.151,132.792 269.818,131.792 264.5,130.5C 272.899,129.212 281.232,129.546 289.5,131.5 Z"/></g>
<g><path style="opacity:1" fill="#c8712d" d="M 272.5,152.5 C 298.187,155.583 319.187,166.916 335.5,186.5C 335.84,189.493 335.84,192.493 335.5,195.5C 332.781,195.315 330.115,196.148 327.5,198C 326.739,202.358 325.572,202.525 324,198.5C 323.667,199.167 323.333,199.833 323,200.5C 321.667,200.5 320.333,200.5 319,200.5C 318.667,201.167 318.333,201.833 318,202.5C 317.041,200.342 315.541,200.009 313.5,201.5C 311.944,200.453 310.277,199.786 308.5,199.5C 303.9,194.865 298.9,190.698 293.5,187C 284.067,182.401 274.4,178.567 264.5,175.5C 267.606,176.733 270.606,176.567 273.5,175C 273.167,174.667 272.833,174.333 272.5,174C 276.762,170.775 279.095,166.775 279.5,162C 278.584,161.722 277.918,161.222 277.5,160.5C 282.753,162.091 288.087,162.924 293.5,163C 285.719,160.748 278.052,158.581 270.5,156.5C 272.104,155.713 272.771,154.38 272.5,152.5 Z"/></g>
<g><path style="opacity:1" fill="#a7542a" d="M 220.5,146.5 C 223.833,146.5 227.167,146.5 230.5,146.5C 242.187,146.334 253.854,146.667 265.5,147.5C 276.573,149.409 287.573,152.076 298.5,155.5C 308.927,159.865 318.593,165.532 327.5,172.5C 331.164,176.332 334.664,180.332 338,184.5C 340.335,190.064 339.501,190.73 335.5,186.5C 319.187,166.916 298.187,155.583 272.5,152.5C 268.519,151.979 264.519,151.646 260.5,151.5C 248.747,149.298 236.747,148.298 224.5,148.5C 220.833,148.5 217.167,148.5 213.5,148.5C 215.438,146.837 217.772,146.171 220.5,146.5 Z"/></g>
<g><path style="opacity:1" fill="#1f111a" d="M 348.5,120.5 C 380.545,133.92 400.379,157.586 408,191.5C 410.134,203.526 407.8,214.526 401,224.5C 400.5,249.831 400.333,275.164 400.5,300.5C 399.958,303.538 398.291,305.038 395.5,305C 396.668,303.594 396.335,302.428 394.5,301.5C 394.977,300.522 395.643,299.689 396.5,299C 395.679,288.243 395.179,277.41 395,266.5C 393.88,277.244 393.046,287.911 392.5,298.5C 392.5,272.833 392.5,247.167 392.5,221.5C 392.5,220.833 392.5,220.167 392.5,219.5C 397.004,215.156 399.337,209.822 399.5,203.5C 400.127,191.469 397.627,180.136 392,169.5C 384.475,156.807 374.975,145.807 363.5,136.5C 362.623,133.284 360.623,130.951 357.5,129.5C 357.833,128.833 358.167,128.167 358.5,127.5C 354.673,125.611 351.34,123.278 348.5,120.5 Z"/></g>
<g><path style="opacity:1" fill="#e9c08f" d="M 200.5,174.5 C 227.218,172.745 253.218,176.078 278.5,184.5C 278.03,185.693 277.03,186.36 275.5,186.5C 273.168,185.828 270.834,185.661 268.5,186C 268.833,186.333 269.167,186.667 269.5,187C 267.065,187.075 266.398,187.908 267.5,189.5C 239.785,181.933 211.785,180.6 183.5,185.5C 178.738,183.441 174.072,183.941 169.5,187C 154.314,199.536 147.481,215.703 149,235.5C 151.86,239.175 154.027,243.175 155.5,247.5C 155.167,247.5 154.833,247.5 154.5,247.5C 146.509,243.989 142.842,237.822 143.5,229C 143.907,216.946 147.241,205.779 153.5,195.5C 155.467,192.523 157.467,189.523 159.5,186.5C 172.65,180.896 186.317,176.896 200.5,174.5 Z"/></g>
<g><path style="opacity:1" fill="#b76637" d="M 206.5,170.5 C 209.5,170.5 212.5,170.5 215.5,170.5C 221.5,170.5 227.5,170.5 233.5,170.5C 236.167,170.833 238.833,171.167 241.5,171.5C 249.021,172.921 256.687,174.254 264.5,175.5C 274.4,178.567 284.067,182.401 293.5,187C 298.9,190.698 303.9,194.865 308.5,199.5C 310.167,202.167 311.833,204.833 313.5,207.5C 314.494,209.334 314.494,211.001 313.5,212.5C 305.366,198.694 293.699,189.361 278.5,184.5C 253.218,176.078 227.218,172.745 200.5,174.5C 200.389,173.883 200.056,173.383 199.5,173C 200.416,172.722 201.082,172.222 201.5,171.5C 203.042,170.699 204.708,170.366 206.5,170.5 Z"/></g>
<g><path style="opacity:1" fill="#d29159" d="M 201.5,171.5 C 201.082,172.222 200.416,172.722 199.5,173C 200.056,173.383 200.389,173.883 200.5,174.5C 186.317,176.896 172.65,180.896 159.5,186.5C 163.037,181.421 167.037,176.754 171.5,172.5C 172.514,173.765 174.014,174.431 176,174.5C 184.504,173.458 193.004,172.458 201.5,171.5 Z"/></g>
<g><path style="opacity:1" fill="#f7dfb7" d="M 267.5,189.5 C 271.771,190.985 276.104,192.318 280.5,193.5C 280.5,194.5 280.5,195.5 280.5,196.5C 279.448,196.351 278.448,196.517 277.5,197C 294.951,206.034 307.784,219.534 316,237.5C 316.495,239.473 316.662,241.473 316.5,243.5C 313.508,249.768 308.675,254.101 302,256.5C 301.421,257.928 301.588,259.262 302.5,260.5C 305.129,263.631 307.962,266.631 311,269.5C 312.867,271.808 313.867,274.475 314,277.5C 316.269,289.074 316.935,300.741 316,312.5C 315.535,313.931 314.701,315.097 313.5,316C 269.546,317.645 225.546,317.979 181.5,317C 172.822,314.322 166.655,308.822 163,300.5C 161.61,294.94 159.61,289.606 157,284.5C 156.831,271.993 156.331,259.66 155.5,247.5C 154.027,243.175 151.86,239.175 149,235.5C 147.481,215.703 154.314,199.536 169.5,187C 174.072,183.941 178.738,183.441 183.5,185.5C 211.785,180.6 239.785,181.933 267.5,189.5 Z"/></g>
<g><path style="opacity:1" fill="#1a161b" d="M 127.5,244.5 C 127.489,246.017 126.823,247.184 125.5,248C 130.334,251.108 134.168,255.275 137,260.5C 137.167,262.167 137.333,263.833 137.5,265.5C 137.387,267.641 136.72,269.475 135.5,271C 110.663,271.168 85.9966,271.668 61.5,272.5C 61.5,272.833 61.5,273.167 61.5,273.5C 59.7538,272.751 58.7538,271.417 58.5,269.5C 59.1556,267.547 59.4889,265.547 59.5,263.5C 61.6208,263.325 63.6208,263.659 65.5,264.5C 85.1667,264.5 104.833,264.5 124.5,264.5C 127.833,264.5 131.167,264.5 134.5,264.5C 130.808,254.813 123.808,249.146 113.5,247.5C 119.115,230.822 125.615,214.489 133,198.5C 135.891,193.657 134.724,190.657 129.5,189.5C 127.088,189.406 125.255,190.406 124,192.5C 118.677,206.802 113.51,221.136 108.5,235.5C 106.065,234.73 104.731,233.063 104.5,230.5C 108.843,217.471 113.343,204.471 118,191.5C 121.677,184.403 127.177,181.903 134.5,184C 138.5,185.667 140.5,188.667 140.5,193C 134.437,209.123 128.104,225.123 121.5,241C 123.034,242.935 125.034,244.101 127.5,244.5 Z"/></g>
<g><path style="opacity:1" fill="#1f1218" d="M 153.5,195.5 C 147.241,205.779 143.907,216.946 143.5,229C 142.842,237.822 146.509,243.989 154.5,247.5C 155.471,248.962 155.138,250.295 153.5,251.5C 152.185,271.372 152.185,291.372 153.5,311.5C 150.975,310.319 148.475,308.986 146,307.5C 145.502,304.183 145.335,300.85 145.5,297.5C 145.658,294.455 144.991,291.621 143.5,289C 144.074,286.056 145.407,283.556 147.5,281.5C 146.515,279.902 146.349,278.235 147,276.5C 147.333,276.833 147.667,277.167 148,277.5C 149.182,270.724 150.349,265.224 151.5,261C 151.167,259.167 150.833,257.333 150.5,255.5C 149.167,257.5 147.833,259.5 146.5,261.5C 145.832,259.031 145.165,256.698 144.5,254.5C 141.18,250.537 138.346,246.204 136,241.5C 134.23,229.894 135.73,218.894 140.5,208.5C 143.979,204.479 146.479,199.812 148,194.5C 148.333,195.167 148.667,195.833 149,196.5C 149.779,195.272 150.779,194.272 152,193.5C 153.03,193.836 153.53,194.503 153.5,195.5 Z"/></g>
<g><path style="opacity:1" fill="#b75f27" d="M 399.5,203.5 C 399.337,209.822 397.004,215.156 392.5,219.5C 387.534,221.835 382.867,224.502 378.5,227.5C 355.974,238.264 333.641,249.264 311.5,260.5C 309.236,259.781 306.903,259.448 304.5,259.5C 307.533,257.598 311.2,255.598 315.5,253.5C 322.883,246.177 325.05,237.51 322,227.5C 319.661,222.148 316.828,217.148 313.5,212.5C 314.494,211.001 314.494,209.334 313.5,207.5C 315.193,208.475 316.693,209.808 318,211.5C 319.245,217.322 321.578,222.655 325,227.5C 325.667,228.833 326.333,228.833 327,227.5C 329.009,230.631 331.509,231.465 334.5,230C 332.699,229.683 332.366,229.016 333.5,228C 338.221,228.438 342.888,227.771 347.5,226C 346.167,225.333 346.167,224.667 347.5,224C 349.351,223.163 351.184,222.329 353,221.5C 353.388,222.428 354.055,223.095 355,223.5C 356.762,223.056 356.595,222.556 354.5,222C 355.865,220.318 357.365,220.151 359,221.5C 360.912,220.308 362.912,219.308 365,218.5C 365.725,220.158 366.892,220.658 368.5,220C 366.098,218.529 366.264,217.029 369,215.5C 369.667,216.833 370.333,216.833 371,215.5C 371.667,211.5 372.333,211.5 373,215.5C 374,214.5 375,213.5 376,212.5C 376.718,213.451 377.551,213.617 378.5,213C 377.549,212.282 377.383,211.449 378,210.5C 378.718,211.451 379.551,211.617 380.5,211C 381.984,209.426 383.651,208.093 385.5,207C 385.167,206.667 384.833,206.333 384.5,206C 386.333,204.833 388.167,203.667 390,202.5C 390.333,203.5 390.667,204.5 391,205.5C 391.837,203.649 392.671,201.816 393.5,200C 390.949,198.484 391.282,197.651 394.5,197.5C 394.98,193.756 395.646,193.923 396.5,198C 394.241,200.16 394.241,202.16 396.5,204C 393.606,206.96 393.939,207.794 397.5,206.5C 398.176,205.398 398.842,204.398 399.5,203.5 Z"/></g>
<g><path style="opacity:1" fill="#e6bb8e" d="M 280.5,193.5 C 298.597,201.098 311.097,214.098 318,232.5C 318.667,235.833 318.667,239.167 318,242.5C 317.617,243.056 317.117,243.389 316.5,243.5C 316.662,241.473 316.495,239.473 316,237.5C 307.784,219.534 294.951,206.034 277.5,197C 278.448,196.517 279.448,196.351 280.5,196.5C 280.5,195.5 280.5,194.5 280.5,193.5 Z"/></g>
<g><path style="opacity:1" fill="#d3a273" d="M 278.5,184.5 C 293.699,189.361 305.366,198.694 313.5,212.5C 316.828,217.148 319.661,222.148 322,227.5C 325.05,237.51 322.883,246.177 315.5,253.5C 311.2,255.598 307.533,257.598 304.5,259.5C 304.5,259.833 304.5,260.167 304.5,260.5C 303.833,260.5 303.167,260.5 302.5,260.5C 301.588,259.262 301.421,257.928 302,256.5C 308.675,254.101 313.508,249.768 316.5,243.5C 317.117,243.389 317.617,243.056 318,242.5C 318.667,239.167 318.667,235.833 318,232.5C 311.097,214.098 298.597,201.098 280.5,193.5C 276.104,192.318 271.771,190.985 267.5,189.5C 266.398,187.908 267.065,187.075 269.5,187C 269.167,186.667 268.833,186.333 268.5,186C 270.834,185.661 273.168,185.828 275.5,186.5C 277.03,186.36 278.03,185.693 278.5,184.5 Z"/></g>
<g><path style="opacity:1" fill="#823d18" d="M 378.5,227.5 C 378.461,228.756 378.961,229.756 380,230.5C 381.897,228.984 384.064,228.317 386.5,228.5C 386.875,231.397 386.375,234.063 385,236.5C 384.667,235.833 384.333,235.167 384,234.5C 383.64,236.608 382.973,238.608 382,240.5C 381.667,240.167 381.333,239.833 381,239.5C 379.786,241.049 378.286,242.215 376.5,243C 378.433,243.783 379.933,243.283 381,241.5C 381.5,242 382,242.5 382.5,243C 381.051,244.117 379.384,244.784 377.5,245C 375.87,249.75 373.703,250.25 371,246.5C 369.176,247.749 369.343,248.915 371.5,250C 370.773,251.399 370.273,252.899 370,254.5C 368.981,253.313 367.814,252.313 366.5,251.5C 365.289,252.274 365.289,253.107 366.5,254C 362.5,256 358.5,258 354.5,260C 355.232,262.95 353.899,264.45 350.5,264.5C 350.181,260.7 349.181,260.534 347.5,264C 347.833,264.333 348.167,264.667 348.5,265C 347.333,266.167 346.167,267.333 345,268.5C 344.218,265.812 342.718,264.812 340.5,265.5C 339.522,265.023 338.689,264.357 338,263.5C 335.042,267.205 332.376,267.205 330,263.5C 328.991,265.025 328.491,266.692 328.5,268.5C 327.178,268.33 326.011,268.663 325,269.5C 324.581,268.328 323.915,267.328 323,266.5C 322.601,266.728 322.435,267.062 322.5,267.5C 319.598,263.924 315.931,261.591 311.5,260.5C 333.641,249.264 355.974,238.264 378.5,227.5 Z"/></g>
<g><path style="opacity:1" fill="#803817" d="M 392.5,219.5 C 392.5,220.167 392.5,220.833 392.5,221.5C 391.981,245.751 391.147,270.084 390,294.5C 389.42,291.839 388.586,289.339 387.5,287C 387.957,286.586 388.291,286.086 388.5,285.5C 386.469,283.596 384.469,283.429 382.5,285C 383.167,285.333 383.833,285.667 384.5,286C 383.101,286.595 381.768,286.428 380.5,285.5C 377.829,287.662 374.995,289.662 372,291.5C 370.16,290.167 369.66,290.334 370.5,292C 369.124,294.543 367.957,294.709 367,292.5C 366.716,294.886 365.716,295.552 364,294.5C 363.333,295.167 362.667,295.833 362,296.5C 359.87,296.587 357.703,296.587 355.5,296.5C 354.808,297.025 354.308,297.692 354,298.5C 352.043,297.146 350.043,297.479 348,299.5C 345.819,295.71 343.819,295.71 342,299.5C 341,299.167 340,298.833 339,298.5C 338.026,300.878 337.359,300.544 337,297.5C 336.667,298.167 336.333,298.833 336,299.5C 334.333,299.167 332.667,298.833 331,298.5C 330.774,295.905 330.274,293.405 329.5,291C 330.022,290.439 330.355,289.772 330.5,289C 329.447,285.842 328.281,282.342 327,278.5C 326.495,280.518 325.995,282.518 325.5,284.5C 324.799,278.903 323.799,273.236 322.5,267.5C 322.435,267.062 322.601,266.728 323,266.5C 323.915,267.328 324.581,268.328 325,269.5C 326.011,268.663 327.178,268.33 328.5,268.5C 328.491,266.692 328.991,265.025 330,263.5C 332.376,267.205 335.042,267.205 338,263.5C 338.689,264.357 339.522,265.023 340.5,265.5C 342.718,264.812 344.218,265.812 345,268.5C 346.167,267.333 347.333,266.167 348.5,265C 348.167,264.667 347.833,264.333 347.5,264C 349.181,260.534 350.181,260.7 350.5,264.5C 353.899,264.45 355.232,262.95 354.5,260C 358.5,258 362.5,256 366.5,254C 365.289,253.107 365.289,252.274 366.5,251.5C 367.814,252.313 368.981,253.313 370,254.5C 370.273,252.899 370.773,251.399 371.5,250C 369.343,248.915 369.176,247.749 371,246.5C 373.703,250.25 375.87,249.75 377.5,245C 379.384,244.784 381.051,244.117 382.5,243C 382,242.5 381.5,242 381,241.5C 379.933,243.283 378.433,243.783 376.5,243C 378.286,242.215 379.786,241.049 381,239.5C 381.333,239.833 381.667,240.167 382,240.5C 382.973,238.608 383.64,236.608 384,234.5C 384.333,235.167 384.667,235.833 385,236.5C 386.375,234.063 386.875,231.397 386.5,228.5C 384.064,228.317 381.897,228.984 380,230.5C 378.961,229.756 378.461,228.756 378.5,227.5C 382.867,224.502 387.534,221.835 392.5,219.5 Z"/></g>
<g><path style="opacity:1" fill="#d05452" d="M 166.5,233.5 C 174.618,233.382 176.618,236.882 172.5,244C 163.385,244.606 161.385,241.106 166.5,233.5 Z"/></g>
<g><path style="opacity:1" fill="#d85b57" d="M 292.5,233.5 C 298.279,233.112 300.779,235.778 300,241.5C 296.288,245.415 292.622,245.415 289,241.5C 288.279,237.946 289.446,235.28 292.5,233.5 Z"/></g>
<g><path style="opacity:1" fill="#1f121c" d="M 259.5,240.5 C 263.888,239.943 267.055,241.61 269,245.5C 269.667,248.5 269.667,251.5 269,254.5C 266.983,259.924 263.15,261.758 257.5,260C 256.107,258.829 255.273,257.329 255,255.5C 254.333,251.833 254.333,248.167 255,244.5C 256.397,242.93 257.897,241.596 259.5,240.5 Z"/></g>
<g><path style="opacity:1" fill="#e0e1e0" d="M 124.5,264.5 C 104.978,264.163 85.6451,263.163 66.5,261.5C 70.6286,253.246 77.2953,248.08 86.5,246C 92.8246,245.5 99.1579,245.334 105.5,245.5C 105.698,241.908 106.698,238.574 108.5,235.5C 113.51,221.136 118.677,206.802 124,192.5C 125.255,190.406 127.088,189.406 129.5,189.5C 134.724,190.657 135.891,193.657 133,198.5C 125.615,214.489 119.115,230.822 113.5,247.5C 123.808,249.146 130.808,254.813 134.5,264.5C 131.167,264.5 127.833,264.5 124.5,264.5 Z"/></g>
<g><path style="opacity:1" fill="#304660" d="M -0.5,319.5 C -0.5,319.167 -0.5,318.833 -0.5,318.5C 0.328254,312.013 0.828254,305.346 1,298.5C 3.09551,297.285 2.92884,296.451 0.5,296C 0.615848,280.377 0.615848,265.21 0.5,250.5C 2.18365,249.146 2.68365,247.479 2,245.5C 1.34569,246.696 0.845686,246.696 0.5,245.5C 1.83333,244.5 1.83333,243.5 0.5,242.5C 1.5,241.5 2.5,240.5 3.5,239.5C 4.35391,240.948 5.35391,242.281 6.5,243.5C 5.68895,244.216 5.02229,245.05 4.5,246C 5.74241,247.651 6.57575,249.485 7,251.5C 9.54743,252.473 11.0474,254.307 11.5,257C 9.64072,259.598 9.64072,262.432 11.5,265.5C 9.79765,268.69 10.4643,269.857 13.5,269C 10.8333,270.333 10.8333,271.667 13.5,273C 12.9322,274.652 11.5989,276.318 9.5,278C 10.5171,279.049 10.6838,280.216 10,281.5C 9.66667,280.833 9.33333,280.167 9,279.5C 8.34202,281.108 8.84202,282.275 10.5,283C 10.1667,283.333 9.83333,283.667 9.5,284C 11.2072,284.195 12.8739,284.195 14.5,284C 13.9647,286.109 12.9647,286.609 11.5,285.5C 10.5713,286.689 10.238,288.022 10.5,289.5C 11.552,289.351 12.552,289.517 13.5,290C 12.6933,292.6 13.36,294.934 15.5,297C 15.1667,297.333 14.8333,297.667 14.5,298C 16.9011,298.805 16.7344,299.638 14,300.5C 13.3736,296.864 12.2069,296.864 10.5,300.5C 11.6405,301.425 11.6405,302.259 10.5,303C 11.8333,303 13.1667,303 14.5,303C 13.5494,303.718 13.3828,304.551 14,305.5C 16.1761,305.988 18.0094,306.988 19.5,308.5C 18.6446,309.293 17.8113,308.96 17,307.5C 16.3333,310.167 15.6667,310.167 15,307.5C 14.342,309.108 14.842,310.275 16.5,311C 15.3279,311.419 14.3279,312.085 13.5,313C 14.7155,315.096 15.5488,314.929 16,312.5C 17.9851,315.171 19.4851,317.671 20.5,320C 18.4815,321.857 16.8149,324.024 15.5,326.5C 16.5,327.333 17.5,328.167 18.5,329C 17.3859,330.449 16.3859,331.783 15.5,333C 16.1258,333.75 16.6258,334.584 17,335.5C 17.3333,335.167 17.6667,334.833 18,334.5C 18.3879,335.428 19.0546,336.095 20,336.5C 24.169,335.09 24.5023,335.756 21,338.5C 20.1072,337.289 19.2739,337.289 18.5,338.5C 18.7093,339.086 19.0426,339.586 19.5,340C 18.6383,342.734 17.805,342.901 17,340.5C 14.7665,343.974 13.7665,347.641 14,351.5C 12.7582,353.541 10.9249,354.707 8.5,355C 9.02527,355.692 9.69194,356.192 10.5,356.5C 11.451,355.674 12.451,355.508 13.5,356C 12.5,357.667 11.1667,359 9.5,360C 12.277,362.173 12.1103,362.673 9,361.5C 8.34202,363.108 8.84202,364.275 10.5,365C 9.16667,365.667 7.83333,366.333 6.5,367C 6.83333,368.667 7.16667,370.333 7.5,372C 7.16667,372.167 6.83333,372.333 6.5,372.5C 5.53443,370.604 5.2011,368.604 5.5,366.5C 3.79881,366.034 2.29881,366.034 1,366.5C 0.175095,364.299 0.675095,362.466 2.5,361C 1.02674,360.29 0.360072,359.124 0.5,357.5C 1.67504,357.719 2.67504,357.386 3.5,356.5C 2.60344,356.331 1.60344,355.998 0.5,355.5C 0.920156,353.674 0.920156,351.674 0.5,349.5C 4.24344,349.541 4.4101,348.874 1,347.5C 0.185083,339.254 0.35175,331.088 1.5,323C 0.915201,321.698 0.248534,320.531 -0.5,319.5 Z"/></g>
<g><path style="opacity:1" fill="#23151c" d="M 201.5,242.5 C 206.638,239.135 210.471,240.468 213,246.5C 214.766,256.055 210.933,260.555 201.5,260C 197.695,255.909 196.528,251.076 198,245.5C 199.039,244.29 200.206,243.29 201.5,242.5 Z"/></g>
<g><path style="opacity:1" fill="#394178" d="M 201.5,242.5 C 202.5,242.5 203.5,242.5 204.5,242.5C 204.799,244.604 204.466,246.604 203.5,248.5C 200.513,247.205 199.846,245.205 201.5,242.5 Z"/></g>
<g><path style="opacity:1" fill="#1d1218" d="M 224.5,255.5 C 227.468,255.626 229.468,257.126 230.5,260C 234.798,261.46 237.798,260.126 239.5,256C 244.083,255.066 245.583,256.9 244,261.5C 239.945,266.316 234.778,267.816 228.5,266C 227,264.5 225.5,263 224,261.5C 223.322,259.402 223.489,257.402 224.5,255.5 Z"/></g>
<g><path style="opacity:1" fill="#211720" d="M 104.5,230.5 C 104.731,233.063 106.065,234.73 108.5,235.5C 106.698,238.574 105.698,241.908 105.5,245.5C 99.1579,245.334 92.8246,245.5 86.5,246C 77.2953,248.08 70.6286,253.246 66.5,261.5C 65.596,262.209 65.2627,263.209 65.5,264.5C 63.6208,263.659 61.6208,263.325 59.5,263.5C 59.4889,265.547 59.1556,267.547 58.5,269.5C 58.7538,271.417 59.7538,272.751 61.5,273.5C 59.4632,286.556 63.1299,297.723 72.5,307C 73.745,307.791 75.0783,308.291 76.5,308.5C 78.7886,310.387 81.4553,311.721 84.5,312.5C 100.254,315.789 114.754,312.789 128,303.5C 135.476,295.263 138.809,285.596 138,274.5C 137.5,274 137,273.5 136.5,273C 129.842,272.5 123.175,272.334 116.5,272.5C 101.167,272.5 85.8333,272.5 70.5,272.5C 67.5,272.5 64.5,272.5 61.5,272.5C 85.9966,271.668 110.663,271.168 135.5,271C 136.72,269.475 137.387,267.641 137.5,265.5C 137.333,263.833 137.167,262.167 137,260.5C 134.168,255.275 130.334,251.108 125.5,248C 126.823,247.184 127.489,246.017 127.5,244.5C 135.368,249.202 140.868,255.869 144,264.5C 144.498,261.183 144.665,257.85 144.5,254.5C 145.165,256.698 145.832,259.031 146.5,261.5C 147.833,259.5 149.167,257.5 150.5,255.5C 150.833,257.333 151.167,259.167 151.5,261C 150.349,265.224 149.182,270.724 148,277.5C 147.667,277.167 147.333,276.833 147,276.5C 146.349,278.235 146.515,279.902 147.5,281.5C 145.407,283.556 144.074,286.056 143.5,289C 144.991,291.621 145.658,294.455 145.5,297.5C 145.167,297.5 144.833,297.5 144.5,297.5C 144.631,296.761 144.464,296.094 144,295.5C 139.528,306.638 131.695,314.472 120.5,319C 107.876,320.54 95.2092,320.874 82.5,320C 60.1948,312.586 50.6948,297.086 54,273.5C 56.8249,258.535 64.9915,247.869 78.5,241.5C 85.6955,239.984 93.0288,238.984 100.5,238.5C 101.127,237.583 101.461,236.583 101.5,235.5C 102.263,233.632 103.263,231.965 104.5,230.5 Z"/></g>
<g><path style="opacity:1" fill="#a7a9ae" d="M 66.5,261.5 C 85.6451,263.163 104.978,264.163 124.5,264.5C 104.833,264.5 85.1667,264.5 65.5,264.5C 65.2627,263.209 65.596,262.209 66.5,261.5 Z"/></g>
<g><path style="opacity:1" fill="#7c909c" d="M 80.5,255.5 C 93.5,255.5 106.5,255.5 119.5,255.5C 119.719,256.675 119.386,257.675 118.5,258.5C 116.56,259.095 114.56,259.428 112.5,259.5C 101.917,259.472 91.2507,259.305 80.5,259C 79.3157,257.855 79.3157,256.688 80.5,255.5 Z"/></g>
<g><path style="opacity:1" fill="#cf1f33" d="M 70.5,272.5 C 85.8333,272.5 101.167,272.5 116.5,272.5C 117.952,273.302 119.618,273.802 121.5,274C 122.022,274.561 122.355,275.228 122.5,276C 120.383,279.168 119.049,282.668 118.5,286.5C 116.368,293.655 111.701,297.321 104.5,297.5C 105.316,292.88 107.316,288.88 110.5,285.5C 110.112,283.359 110.112,281.359 110.5,279.5C 111.752,277.999 112.752,276.332 113.5,274.5C 99.8455,273.334 86.1788,273.167 72.5,274C 71.7476,274.671 71.4142,275.504 71.5,276.5C 71.5,277.167 71.1667,277.5 70.5,277.5C 69.325,277.719 68.325,277.386 67.5,276.5C 68.1716,274.84 69.1716,273.507 70.5,272.5 Z"/></g>
<g><path style="opacity:1" fill="#e7283e" d="M 104.5,297.5 C 103.178,297.33 102.011,297.663 101,298.5C 100.184,297.177 99.0174,296.511 97.5,296.5C 97.7035,294.61 97.0368,293.11 95.5,292C 94.0024,291.415 93.0024,291.915 92.5,293.5C 91.5902,295.019 90.7568,296.685 90,298.5C 85.6844,297.883 81.1844,297.216 76.5,296.5C 76.5479,293.708 75.2146,291.875 72.5,291C 74.7254,290.439 76.7254,289.439 78.5,288C 77.9056,287.536 77.2389,287.369 76.5,287.5C 81.1525,284.395 81.4859,280.895 77.5,277C 75.5273,276.505 73.5273,276.338 71.5,276.5C 71.4142,275.504 71.7476,274.671 72.5,274C 86.1788,273.167 99.8455,273.334 113.5,274.5C 112.752,276.332 111.752,277.999 110.5,279.5C 110.112,281.359 110.112,283.359 110.5,285.5C 107.316,288.88 105.316,292.88 104.5,297.5 Z"/></g>
<g><path style="opacity:1" fill="#b41b2f" d="M 116.5,272.5 C 123.175,272.334 129.842,272.5 136.5,273C 137,273.5 137.5,274 138,274.5C 138.809,285.596 135.476,295.263 128,303.5C 114.754,312.789 100.254,315.789 84.5,312.5C 88.1817,312.665 91.8484,312.499 95.5,312C 99.1247,307.545 102.125,302.711 104.5,297.5C 111.701,297.321 116.368,293.655 118.5,286.5C 119.049,282.668 120.383,279.168 122.5,276C 122.355,275.228 122.022,274.561 121.5,274C 119.618,273.802 117.952,273.302 116.5,272.5 Z"/></g>
<g><path style="opacity:1" fill="#f5eced" d="M 71.5,276.5 C 73.5273,276.338 75.5273,276.505 77.5,277C 81.4859,280.895 81.1525,284.395 76.5,287.5C 73.0581,288.172 70.3914,287.172 68.5,284.5C 68.1658,281.812 68.8325,279.479 70.5,277.5C 71.1667,277.5 71.5,277.167 71.5,276.5 Z"/></g>
<g><path style="opacity:1" fill="#783617" d="M 392.5,221.5 C 392.5,247.167 392.5,272.833 392.5,298.5C 390.982,303.517 387.648,306.684 382.5,308C 364.923,312.986 347.256,317.652 329.5,322C 325.886,322.936 322.22,323.436 318.5,323.5C 318.833,322.5 319.5,321.833 320.5,321.5C 323.39,320.101 324.89,317.768 325,314.5C 325.5,304.506 325.666,294.506 325.5,284.5C 325.995,282.518 326.495,280.518 327,278.5C 328.281,282.342 329.447,285.842 330.5,289C 330.355,289.772 330.022,290.439 329.5,291C 330.274,293.405 330.774,295.905 331,298.5C 332.667,298.833 334.333,299.167 336,299.5C 336.333,298.833 336.667,298.167 337,297.5C 337.359,300.544 338.026,300.878 339,298.5C 340,298.833 341,299.167 342,299.5C 343.819,295.71 345.819,295.71 348,299.5C 350.043,297.479 352.043,297.146 354,298.5C 354.308,297.692 354.808,297.025 355.5,296.5C 357.703,296.587 359.87,296.587 362,296.5C 362.667,295.833 363.333,295.167 364,294.5C 365.716,295.552 366.716,294.886 367,292.5C 367.957,294.709 369.124,294.543 370.5,292C 369.66,290.334 370.16,290.167 372,291.5C 374.995,289.662 377.829,287.662 380.5,285.5C 381.768,286.428 383.101,286.595 384.5,286C 383.833,285.667 383.167,285.333 382.5,285C 384.469,283.429 386.469,283.596 388.5,285.5C 388.291,286.086 387.957,286.586 387.5,287C 388.586,289.339 389.42,291.839 390,294.5C 391.147,270.084 391.981,245.751 392.5,221.5 Z"/></g>
<g><path style="opacity:1" fill="#b81f31" d="M 61.5,272.5 C 64.5,272.5 67.5,272.5 70.5,272.5C 69.1716,273.507 68.1716,274.84 67.5,276.5C 68.325,277.386 69.325,277.719 70.5,277.5C 68.8325,279.479 68.1658,281.812 68.5,284.5C 67.9569,284.56 67.6236,284.893 67.5,285.5C 69.3455,289.53 71.8455,293.197 75,296.5C 75.4955,298.473 75.6621,300.473 75.5,302.5C 73.7741,302.185 72.1075,302.019 70.5,302C 72.7756,303.958 74.7756,306.125 76.5,308.5C 75.0783,308.291 73.745,307.791 72.5,307C 63.1299,297.723 59.4632,286.556 61.5,273.5C 61.5,273.167 61.5,272.833 61.5,272.5 Z"/></g>
<g><path style="opacity:1" fill="#d7253a" d="M 68.5,284.5 C 70.3914,287.172 73.0581,288.172 76.5,287.5C 77.2389,287.369 77.9056,287.536 78.5,288C 76.7254,289.439 74.7254,290.439 72.5,291C 75.2146,291.875 76.5479,293.708 76.5,296.5C 81.1844,297.216 85.6844,297.883 90,298.5C 90.7568,296.685 91.5902,295.019 92.5,293.5C 92.5,294.5 92.5,295.5 92.5,296.5C 94.1667,296.5 95.8333,296.5 97.5,296.5C 99.0174,296.511 100.184,297.177 101,298.5C 102.011,297.663 103.178,297.33 104.5,297.5C 102.125,302.711 99.1247,307.545 95.5,312C 91.8484,312.499 88.1817,312.665 84.5,312.5C 81.4553,311.721 78.7886,310.387 76.5,308.5C 74.7756,306.125 72.7756,303.958 70.5,302C 72.1075,302.019 73.7741,302.185 75.5,302.5C 75.6621,300.473 75.4955,298.473 75,296.5C 71.8455,293.197 69.3455,289.53 67.5,285.5C 67.6236,284.893 67.9569,284.56 68.5,284.5 Z"/></g>
<g><path style="opacity:1" fill="#7b1122" d="M 97.5,296.5 C 95.8333,296.5 94.1667,296.5 92.5,296.5C 92.5,295.5 92.5,294.5 92.5,293.5C 93.0024,291.915 94.0024,291.415 95.5,292C 97.0368,293.11 97.7035,294.61 97.5,296.5 Z"/></g>
<g><path style="opacity:1" fill="#b87647" d="M 304.5,260.5 C 304.5,260.167 304.5,259.833 304.5,259.5C 306.903,259.448 309.236,259.781 311.5,260.5C 315.931,261.591 319.598,263.924 322.5,267.5C 323.799,273.236 324.799,278.903 325.5,284.5C 325.666,294.506 325.5,304.506 325,314.5C 324.89,317.768 323.39,320.101 320.5,321.5C 323.285,304.536 322.785,287.536 319,270.5C 315.49,265.322 310.656,261.989 304.5,260.5 Z"/></g>
<g><path style="opacity:1" fill="#14171d" d="M 40.5,310.5 C 45.1667,310.5 49.8333,310.5 54.5,310.5C 54.67,311.822 54.3366,312.989 53.5,314C 49.1103,314.772 44.777,314.606 40.5,313.5C 39.4376,312.575 39.4376,311.575 40.5,310.5 Z"/></g>
<g><path style="opacity:1" fill="#ce9c6c" d="M 153.5,251.5 C 154.033,270.83 154.533,290.163 155,309.5C 155.419,310.672 156.085,311.672 157,312.5C 157.202,310.744 157.702,309.078 158.5,307.5C 160.725,312.394 164.058,316.394 168.5,319.5C 167.624,320.251 166.624,320.751 165.5,321C 167.235,321.651 168.902,321.485 170.5,320.5C 172.709,322.219 175.043,323.553 177.5,324.5C 166.52,325.348 158.52,321.015 153.5,311.5C 152.185,291.372 152.185,271.372 153.5,251.5 Z"/></g>
<g><path style="opacity:1" fill="#1a1317" d="M 400.5,300.5 C 403.95,299.756 405.616,301.09 405.5,304.5C 402.396,303.971 400.063,304.971 398.5,307.5C 403.802,308.329 409.136,308.829 414.5,309C 415.833,310 415.833,311 414.5,312C 407.5,312.333 400.5,312.667 393.5,313C 392.284,314.74 390.618,315.74 388.5,316C 395.1,315.944 401.767,316.11 408.5,316.5C 408.5,317.5 408.5,318.5 408.5,319.5C 398.42,319.345 388.42,320.178 378.5,322C 358.9,325.72 339.233,329.053 319.5,332C 270.5,332.667 221.5,332.667 172.5,332C 157.892,330.568 143.225,330.068 128.5,330.5C 128.5,329.5 128.5,328.5 128.5,327.5C 138.172,327.666 147.839,327.5 157.5,327C 152.629,325.231 148.963,322.064 146.5,317.5C 142.287,316.805 138.121,316.139 134,315.5C 133.833,315.167 133.667,314.833 133.5,314.5C 137.445,313.509 141.445,313.176 145.5,313.5C 144.725,308.203 144.392,302.87 144.5,297.5C 144.833,297.5 145.167,297.5 145.5,297.5C 145.335,300.85 145.502,304.183 146,307.5C 148.475,308.986 150.975,310.319 153.5,311.5C 158.52,321.015 166.52,325.348 177.5,324.5C 224.523,324.814 271.523,324.48 318.5,323.5C 322.22,323.436 325.886,322.936 329.5,322C 347.256,317.652 364.923,312.986 382.5,308C 387.648,306.684 390.982,303.517 392.5,298.5C 393.046,287.911 393.88,277.244 395,266.5C 395.179,277.41 395.679,288.243 396.5,299C 395.643,299.689 394.977,300.522 394.5,301.5C 396.335,302.428 396.668,303.594 395.5,305C 398.291,305.038 399.958,303.538 400.5,300.5 Z"/></g>
<g><path style="opacity:1" fill="#ddb081" d="M 154.5,247.5 C 154.833,247.5 155.167,247.5 155.5,247.5C 156.331,259.66 156.831,271.993 157,284.5C 159.61,289.606 161.61,294.94 163,300.5C 166.655,308.822 172.822,314.322 181.5,317C 225.546,317.979 269.546,317.645 313.5,316C 314.701,315.097 315.535,313.931 316,312.5C 316.935,300.741 316.269,289.074 314,277.5C 313.867,274.475 312.867,271.808 311,269.5C 307.962,266.631 305.129,263.631 302.5,260.5C 303.167,260.5 303.833,260.5 304.5,260.5C 310.656,261.989 315.49,265.322 319,270.5C 322.785,287.536 323.285,304.536 320.5,321.5C 319.5,321.833 318.833,322.5 318.5,323.5C 271.523,324.48 224.523,324.814 177.5,324.5C 175.043,323.553 172.709,322.219 170.5,320.5C 168.902,321.485 167.235,321.651 165.5,321C 166.624,320.751 167.624,320.251 168.5,319.5C 164.058,316.394 160.725,312.394 158.5,307.5C 157.702,309.078 157.202,310.744 157,312.5C 156.085,311.672 155.419,310.672 155,309.5C 154.533,290.163 154.033,270.83 153.5,251.5C 155.138,250.295 155.471,248.962 154.5,247.5 Z"/></g>
<g><path style="opacity:1" fill="#111318" d="M 40.5,317.5 C 46.8421,317.334 53.1754,317.5 59.5,318C 60.8333,319 60.8333,320 59.5,321C 53.1754,321.5 46.8421,321.666 40.5,321.5C 40.5,320.167 40.5,318.833 40.5,317.5 Z"/></g>
<g><path style="opacity:1" fill="#121114" d="M 126.5,319.5 C 133.175,319.334 139.842,319.5 146.5,320C 146.957,320.414 147.291,320.914 147.5,321.5C 140.532,322.497 133.532,322.83 126.5,322.5C 126.5,321.5 126.5,320.5 126.5,319.5 Z"/></g>
<g><path style="opacity:1" fill="#15151b" d="M 50.5,324.5 C 54.8839,324.174 59.2172,324.508 63.5,325.5C 63.2907,326.086 62.9574,326.586 62.5,327C 58.8333,327.667 55.1667,327.667 51.5,327C 50.7476,326.329 50.4142,325.496 50.5,324.5 Z"/></g>
<g><path style="opacity:1" fill="#17161d" d="M 347.5,328.5 C 356.839,328.334 366.173,328.5 375.5,329C 377.481,329.605 377.815,330.605 376.5,332C 363.82,332.833 351.154,332.666 338.5,331.5C 341.576,330.366 344.576,329.366 347.5,328.5 Z"/></g>
</svg>
