<?xml version="1.0" standalone="no"?>
<!DOCTYPE svg PUBLIC "-//W3C//DTD SVG 20010904//EN"
 "http://www.w3.org/TR/2001/REC-SVG-20010904/DTD/svg10.dtd">
<svg version="1.0" xmlns="http://www.w3.org/2000/svg"
 width="460.000000pt" height="460.000000pt" viewBox="0 0 460.000000 460.000000"
 preserveAspectRatio="xMidYMid meet">

<g transform="translate(0.000000,460.000000) scale(0.100000,-0.100000)"
fill="#000000" stroke="none">
<path d="M0 2300 l0 -2300 2300 0 2300 0 0 2300 0 2300 -2300 0 -2300 0 0
-2300z m3296 1065 c114 -20 190 -55 247 -113 91 -94 118 -253 50 -297 -24 -16
-26 -16 -91 49 -150 146 -277 209 -522 256 -149 29 -332 47 -315 32 6 -5 66
-17 135 -27 147 -21 327 -70 425 -115 98 -46 225 -142 225 -170 0 -4 6 -11 13
-14 6 -3 0 -3 -15 0 -18 4 -33 0 -43 -10 -9 -9 -22 -16 -28 -16 -7 0 -6 4 3
10 8 5 10 10 4 10 -16 0 -35 -25 -26 -35 4 -5 1 -5 -7 0 -11 6 -13 2 -7 -19 6
-23 5 -25 -7 -15 -8 8 -12 23 -10 34 3 17 2 17 -6 -2 -6 -13 -18 -23 -26 -23
-9 0 -13 -5 -10 -10 4 -6 10 -8 14 -6 4 3 8 -1 8 -9 0 -16 -4 -14 -77 41 -178
134 -494 215 -830 213 -221 -2 -258 -14 -65 -21 256 -10 552 -61 593 -102 19
-19 6 -39 -16 -27 -42 23 -247 62 -227 44 6 -5 55 -21 110 -36 147 -39 159
-41 151 -29 -3 6 -2 13 3 17 15 8 53 -33 44 -48 -5 -8 -9 -3 -13 13 l-6 25 -8
-24 c-6 -16 -11 -20 -16 -11 -5 8 -9 3 -12 -13 -3 -14 -1 -32 4 -39 7 -9 8 -7
3 7 -4 14 -3 17 5 9 7 -7 7 -18 1 -35 -5 -13 -10 -18 -10 -11 -1 6 -6 12 -12
12 -5 0 -8 -4 -5 -9 11 -17 -6 -43 -25 -38 -11 3 -17 1 -14 -3 3 -5 1 -11 -5
-15 -5 -3 -10 -1 -10 5 0 7 -6 6 -15 -3 -13 -14 -21 -14 -67 0 -148 43 -231
62 -313 71 -118 14 -303 23 -250 13 35 -7 36 -8 11 -10 -57 -2 -18 -11 100
-21 204 -18 431 -77 562 -146 119 -63 221 -174 294 -322 55 -109 61 -171 24
-245 -32 -67 -49 -83 -121 -111 -56 -23 -56 -36 -1 -36 42 0 85 -21 111 -56
31 -41 43 -132 46 -344 2 -160 -3 -180 -44 -211 l-32 -24 -735 0 c-791 0 -778
-1 -841 52 -59 50 -61 62 -67 354 -5 273 -3 307 23 332 12 13 8 18 -31 43 -83
52 -101 128 -68 277 42 190 199 422 382 566 185 146 460 271 769 351 189 48
515 65 689 35z m-1957 -684 c12 -22 4 -53 -34 -136 -15 -33 -42 -96 -60 -140
-19 -44 -47 -113 -64 -153 -47 -112 -46 -122 14 -145 27 -10 56 -24 64 -30 22
-18 91 -108 91 -118 0 -14 -682 -7 -687 7 -2 6 14 34 36 62 52 66 126 101 224
108 143 10 130 1 172 117 20 56 45 125 55 152 58 164 105 277 119 285 26 15
60 11 70 -9z m-548 -861 c47 -26 9 -100 -51 -100 -33 0 -50 17 -50 51 0 50 51
75 101 49z"/>
<path d="M1668 2248 c-28 -22 -31 -55 -9 -77 39 -39 91 -20 91 34 0 48 -45 71
-82 43z"/>
<path d="M2922 2244 c-54 -37 -7 -113 53 -86 31 14 34 61 7 85 -23 21 -32 21
-60 1z"/>
<path d="M2010 2170 c-22 -16 -25 -27 -25 -78 0 -72 21 -102 71 -102 85 0 114
140 40 192 -20 14 -61 8 -86 -12z"/>
<path d="M2575 2165 c-20 -19 -25 -34 -25 -77 0 -69 19 -98 64 -98 45 0 75 27
83 72 16 101 -60 166 -122 103z"/>
<path d="M2240 2020 c-14 -27 39 -87 85 -96 60 -11 135 48 120 95 -9 29 -32
26 -65 -9 -15 -16 -33 -30 -40 -30 -6 0 -24 14 -38 30 -31 35 -47 38 -62 10z"/>
<path d="M3233 1645 c0 -44 2 -61 4 -37 2 23 2 59 0 80 -2 20 -4 1 -4 -43z"/>
</g>
</svg>
